<svg width="21" height="20" viewBox="0 0 21 20" fill="none" xmlns="http://www.w3.org/2000/svg">
<g id="mailbox-01">
<path id="Vector" d="M5.61667 7.5H7.28334" stroke="black" stroke-width="1.25" stroke-linecap="round" stroke-linejoin="round"/>
<path id="Vector_2" d="M14.7834 6.66675V3.33341C14.7834 2.41294 15.5295 1.66675 16.45 1.66675" stroke="black" stroke-width="1.25" stroke-linecap="round" stroke-linejoin="round"/>
<path id="Vector_3" d="M10.6167 15V18.3333" stroke="black" stroke-width="1.25" stroke-linecap="round"/>
<path id="Vector_4" d="M14.7834 4.29916C13.9793 4.16675 12.9159 4.16675 11.3459 4.16675H9.05419C6.62228 4.16675 5.40633 4.16675 4.48587 4.65874C3.75909 5.04721 3.16382 5.64248 2.77535 6.36926C2.28336 7.28972 2.28336 8.50566 2.28336 10.9376C2.28336 12.3967 2.28336 13.1263 2.57856 13.6786C2.81164 14.1147 3.1688 14.4718 3.60486 14.7049C4.15714 15.0001 4.88671 15.0001 6.34586 15.0001H14.0542C15.5134 15.0001 16.2429 15.0001 16.7952 14.7049C17.2313 14.4718 17.5884 14.1147 17.8215 13.6786C18.1167 13.1263 18.1167 12.3967 18.1167 10.9376C18.1167 8.50566 18.1167 7.28972 17.6247 6.36926C17.4797 6.09804 17.3059 5.84513 17.1073 5.61446" stroke="black" stroke-width="1.25" stroke-linecap="round"/>
<path id="Vector_5" d="M10.6172 15V9.16667C10.6172 8.3925 10.6172 8.00541 10.5658 7.68152C10.2835 5.89864 8.88517 4.50034 7.1023 4.21796C7.03408 4.20716 6.96305 4.19863 6.8862 4.19189" stroke="black" stroke-width="1.25" stroke-linecap="round"/>
</g>
</svg>
