<svg width="21" height="20" viewBox="0 0 21 20" fill="none" xmlns="http://www.w3.org/2000/svg">
<g id="navigation-03">
<path id="Vector" d="M10.3349 3.9917C14.3135 2.63538 16.3028 1.95722 17.3728 3.02718C18.4427 4.09714 17.7645 6.08643 16.4083 10.065L15.4846 12.7743C14.443 15.8298 13.9222 17.3576 13.0636 17.484C12.8329 17.518 12.5939 17.4976 12.3655 17.4243C11.5162 17.1516 11.0672 15.5408 10.1692 12.3192C9.97003 11.6046 9.87044 11.2473 9.64361 10.9743C9.57778 10.8952 9.50478 10.8222 9.42561 10.7563C9.1527 10.5295 8.79536 10.4299 8.08082 10.2308C4.8592 9.33275 3.2484 8.88375 2.9757 8.03439C2.90238 7.80603 2.88192 7.56711 2.91591 7.33629C3.04235 6.47777 4.5701 5.95695 7.62561 4.91532L10.3349 3.9917Z" stroke="black" stroke-width="1.25"/>
</g>
</svg>
