<svg width="31" height="30" viewBox="0 0 31 30" fill="none" xmlns="http://www.w3.org/2000/svg">
<g id="G2 logo">
<g id="Layer 2">
<g id="Layer 1">
<path id="Vector" d="M21.6399 21.3741C22.7744 23.2891 23.8963 25.1825 25.0174 27.0737C20.0532 30.7705 12.3297 31.2172 6.61225 26.9601C0.0326521 22.0572 -1.04876 13.6913 2.47385 7.66926C6.52536 0.742585 14.1071 -0.789292 18.9886 0.333975C18.8566 0.612945 15.9329 6.51276 15.9329 6.51276C15.9329 6.51276 15.7018 6.52753 15.571 6.52999C14.1282 6.58948 13.0535 6.91604 11.9017 7.49531C10.6379 8.13674 9.55492 9.06948 8.74734 10.212C7.93976 11.3545 7.43217 12.6721 7.26894 14.0495C7.09863 15.4464 7.29721 16.8624 7.84592 18.1639C8.30987 19.2642 8.96614 20.2414 9.84595 21.0664C11.1956 22.3333 12.8017 23.1177 14.6634 23.3774C16.4264 23.6235 18.1219 23.3798 19.7107 22.6032C20.3067 22.3123 20.8136 21.9911 21.4062 21.5505C21.4817 21.5029 21.5488 21.4426 21.6399 21.3741Z" fill="#FF492C"/>
<path id="Vector_2" d="M21.6513 4.57875C21.3632 4.30306 21.0963 4.0487 20.8306 3.79271C20.672 3.64009 20.5193 3.48133 20.3569 3.3324C20.2987 3.27866 20.2304 3.20523 20.2304 3.20523C20.2304 3.20523 20.2856 3.09118 20.3092 3.04441C20.6201 2.43765 21.1072 1.99417 21.6851 1.64135C22.324 1.24824 23.0685 1.04823 23.8243 1.06659C24.7914 1.08505 25.6906 1.3193 26.4494 1.95027C27.0095 2.4159 27.2967 3.00667 27.3473 3.71189C27.4317 4.90161 26.9255 5.81278 25.9205 6.44867C25.33 6.82282 24.6931 7.11204 24.0546 7.4546C23.7024 7.64373 23.4012 7.80988 23.0571 8.15203C22.7542 8.49541 22.7395 8.8191 22.7395 8.8191L27.3144 8.81335V10.7953H20.2527C20.2527 10.7953 20.2527 10.6599 20.2527 10.6037C20.2257 9.62975 20.3426 8.71325 20.801 7.82875C21.2228 7.01728 21.8782 6.42323 22.6657 5.9658C23.2722 5.6134 23.9107 5.31351 24.5185 4.96274C24.8935 4.74654 25.1583 4.42942 25.1562 3.96952C25.1562 3.57486 24.861 3.2241 24.4392 3.11456C23.4447 2.85364 22.4324 3.27005 21.9061 4.15537C21.8293 4.2846 21.7509 4.41301 21.6513 4.57875Z" fill="#FF492C"/>
<path id="Vector_3" d="M30.4997 19.2672L26.6443 12.791H19.0149L15.1347 19.3341H22.8201L26.6127 25.7796L30.4997 19.2672Z" fill="#FF492C"/>
</g>
</g>
</g>
</svg>
