<svg width="21" height="20" viewBox="0 0 21 20" fill="none" xmlns="http://www.w3.org/2000/svg">
<g id="user-search-02">
<path id="Vector" d="M4.9167 12.7471C3.86873 13.3613 1.12099 14.6156 2.79455 16.1851C3.61206 16.9517 4.52257 17.5001 5.6673 17.5001H12.1994C13.3441 17.5001 14.2546 16.9517 15.0721 16.1851C16.7456 14.6156 13.9979 13.3613 12.95 12.7471C10.4925 11.3066 7.3742 11.3066 4.9167 12.7471Z" stroke="black" stroke-width="1.25" stroke-linecap="round" stroke-linejoin="round"/>
<path id="Vector_2" d="M12.2666 5.83333C12.2666 7.67428 10.7743 9.16667 8.93331 9.16667C7.09236 9.16667 5.59998 7.67428 5.59998 5.83333C5.59998 3.99238 7.09236 2.5 8.93331 2.5C10.7743 2.5 12.2666 3.99238 12.2666 5.83333Z" stroke="black" stroke-width="1.25"/>
<path id="Vector_3" d="M17.9341 6.5L18.9341 7.5M18.4341 4.75C18.4341 3.50735 17.4268 2.5 16.1841 2.5C14.9415 2.5 13.9341 3.50735 13.9341 4.75C13.9341 5.99265 14.9415 7 16.1841 7C17.4268 7 18.4341 5.99265 18.4341 4.75Z" stroke="black" stroke-width="1.25" stroke-linecap="round" stroke-linejoin="round"/>
</g>
</svg>
