<svg width="20" height="20" viewBox="0 0 20 20" fill="none" xmlns="http://www.w3.org/2000/svg">
<g id="pencil-edit-02">
<path id="Vector" d="M13.6874 3.83757L14.5124 3.01258C15.1959 2.32914 16.304 2.32914 16.9874 3.01258C17.6708 3.69603 17.6708 4.80411 16.9874 5.48756L16.1624 6.31255M13.6874 3.83757L8.13796 9.387C7.71504 9.81 7.41501 10.3398 7.26995 10.9201L6.66664 13.3333L9.07989 12.73C9.66014 12.585 10.19 12.2849 10.613 11.862L16.1624 6.31255M13.6874 3.83757L16.1624 6.31255" stroke="black" stroke-width="1.25" stroke-linejoin="round"/>
<path id="Vector_2" d="M15.8332 11.2501C15.8332 13.9897 15.8332 15.3594 15.0766 16.2814C14.9381 16.4502 14.7834 16.6049 14.6146 16.7434C13.6926 17.5001 12.3228 17.5001 9.58323 17.5001H9.16664C6.02394 17.5001 4.45261 17.5001 3.4763 16.5237C2.5 15.5475 2.49998 13.9761 2.49998 10.8334V10.4167C2.49998 7.67718 2.49998 6.30741 3.25659 5.38545C3.39512 5.21666 3.54989 5.06189 3.71868 4.92336C4.64064 4.16675 6.01041 4.16675 8.74998 4.16675" stroke="black" stroke-width="1.25" stroke-linecap="round" stroke-linejoin="round"/>
</g>
</svg>
