<svg width="20" height="20" viewBox="0 0 20 20" fill="none" xmlns="http://www.w3.org/2000/svg">
<g id="checkmark-badge-01">
<path id="Vector" d="M15.8254 15.8332H15.8334M15.8254 15.8332C15.3065 16.3478 14.3661 16.2196 13.7066 16.2196C12.8971 16.2196 12.5073 16.3779 11.9295 16.9557C11.4376 17.4477 10.7781 18.3332 10 18.3332C9.22194 18.3332 8.56244 17.4477 8.0705 16.9557C7.49275 16.3779 7.10293 16.2196 6.2934 16.2196C5.63392 16.2196 4.6935 16.3478 4.1746 15.8332C3.65153 15.3145 3.78025 14.3702 3.78025 13.7064C3.78025 12.8677 3.59682 12.482 2.9995 11.8847C2.11097 10.9962 1.6667 10.5518 1.66669 9.99984C1.6667 9.44775 2.11095 9.0035 2.99948 8.11498C3.53269 7.58177 3.78025 7.0534 3.78025 6.29322C3.78025 5.63371 3.6521 4.69329 4.16669 4.17437C4.68538 3.65132 5.62969 3.78005 6.29342 3.78005C7.05358 3.78005 7.58195 3.5325 8.11514 2.99931C9.00369 2.11077 9.44794 1.6665 10 1.6665C10.5521 1.6665 10.9964 2.11077 11.8849 2.99931C12.4179 3.5324 12.9463 3.78005 13.7066 3.78005C14.3661 3.78005 15.3066 3.6519 15.8255 4.1665C16.3485 4.6852 16.2198 5.6295 16.2198 6.29322C16.2198 7.13199 16.4033 7.51765 17.0005 8.11498C17.8891 9.0035 18.3334 9.44775 18.3334 9.99984C18.3334 10.5518 17.8891 10.9962 17.0005 11.8847C16.4032 12.482 16.2198 12.8677 16.2198 13.7064C16.2198 14.3702 16.3485 15.3145 15.8254 15.8332Z" stroke="black" stroke-width="1.25"/>
<path id="Vector_2" d="M7.5 10.7439C7.5 10.7439 8.5 11.2871 9 12.0832C9 12.0832 10.5 8.95817 12.5 7.9165" stroke="black" stroke-width="1.25" stroke-linecap="round" stroke-linejoin="round"/>
</g>
</svg>
