<svg width="21" height="20" viewBox="0 0 21 20" fill="none" xmlns="http://www.w3.org/2000/svg">
<g id="message-multiple-02">
<path id="Vector" d="M7.29246 15.8334C7.02051 15.7235 6.87032 15.6703 6.7863 15.6806C6.68305 15.6932 6.53323 15.8032 6.2336 16.023C5.70529 16.4108 5.03973 16.6893 4.05271 16.6653C3.55362 16.6533 3.30407 16.6472 3.19235 16.4576C3.08064 16.2681 3.21978 16.0057 3.49805 15.4808C3.884 14.7529 4.12854 13.9197 3.758 13.252C3.11985 12.2982 2.57778 11.1688 2.49856 9.949C2.456 9.29358 2.456 8.61483 2.49856 7.95942C2.71605 4.61021 5.35919 1.94238 8.67741 1.72286C9.80715 1.64812 10.9891 1.64797 12.1211 1.72286C15.4252 1.94145 18.06 4.58757 18.2971 7.91675" stroke="black" stroke-width="1.25" stroke-linecap="round" stroke-linejoin="round"/>
<path id="Vector_2" d="M13.048 18.0394C10.9565 17.9053 9.29051 16.2749 9.15343 14.2282C9.12663 13.8276 9.12663 13.4129 9.15343 13.0123C9.29051 10.9655 10.9565 9.3352 13.048 9.20103C13.7616 9.15528 14.5066 9.15536 15.2187 9.20103C17.3102 9.3352 18.9762 10.9655 19.1133 13.0123C19.14 13.4129 19.14 13.8276 19.1133 14.2282C19.0633 14.9736 18.7216 15.6639 18.3194 16.2466C18.0858 16.6546 18.24 17.1639 18.4833 17.6087C18.6587 17.9294 18.7463 18.0898 18.6759 18.2056C18.6055 18.3215 18.4482 18.3252 18.1336 18.3326C17.5115 18.3472 17.092 18.177 16.759 17.94C16.5702 17.8057 16.4757 17.7385 16.4106 17.7308C16.3455 17.723 16.2174 17.7739 15.9613 17.8757C15.7312 17.9672 15.4638 18.0237 15.2187 18.0394C14.5066 18.0851 13.7616 18.0852 13.048 18.0394Z" stroke="black" stroke-width="1.25" stroke-linejoin="round"/>
</g>
</svg>
